# AST/ASF file generated using VICON BodyLanguage
# -----------------------------------------------
:version 1.10
:name VICON
:units
  mass 1.0
  length 0.45
  angle deg
:documentation
   .ast/.asf automatically generated from VICON data using
   VICON BodyBuilder and BodyLanguage model FoxedUp or BRILLIANT.MOD
:root
   order TX TY TZ RX RY RZ
   axis XYZ
   position 0 0 0  
   orientation 0 0 0 
:bonedata
  begin
     id 1 
     name lhipjoint
     direction 0.567149 -0.783011 0.255413 
     length 2.28399 
     axis 0 0 0  XYZ
  end
  begin
     id 2 
     name lfemur
     direction 0.34202 -0.939693 0  
     length 7.34031  
     axis 0 0 20  XYZ
    dof rx ry rz
    limits (-160.0 20.0)
           (-70.0 70.0)
           (-60.0 70.0)
  end
  begin
     id 3 
     name ltibia
     direction 0.34202 -0.939693 0   
     length 6.9833   
     axis 0 0 20   XYZ
    dof rx
    limits (-10.0 170.0)
  end
  begin
     id 4 
     name lfoot
     direction 0.136498 -0.375025 0.91691   
     length 2.33665   
     axis -90 7.62852e-016 20   XYZ
    dof rx rz
    limits (-45.0 90.0)
           (-70.0 20.0)
  end
  begin
     id 5 
     name ltoes
     direction 1.5367e-011 -4.21617e-011 1   
     length 1.15039   
     axis -90 7.62852e-016 20   XYZ
    dof rx
    limits (-90.0 20.0)
  end
  begin
     id 6 
     name rhipjoint
     direction -0.602854 -0.758518 0.247423   
     length 2.35775  
     axis 0 0 0  XYZ 
  end
  begin
     id 7 
     name rfemur
     direction -0.34202 -0.939693 0   
     length 7.43932   
     axis 0 0 -20   XYZ
    dof rx ry rz
    limits (-160.0 20.0)
           (-70.0 70.0)
           (-70.0 60.0)
  end
  begin
     id 8 
     name rtibia
     direction -0.34202 -0.939693 0   
     length 7.11893   
     axis 0 0 -20   XYZ
    dof rx
    limits (-10.0 170.0)
 end
 begin
     id 9 
     name rfoot
     direction -0.131771 -0.362037 0.922803   
     length 2.53019  
     axis -90 -7.62852e-016 -20   XYZ
    dof rx rz
    limits (-45.0 90.0)
           (-20.0 70.0)
  end
  begin
     id 10 
     name rtoes
     direction -1.53733e-011 -4.21932e-011 1   
     length 1.24596   
     axis -90 -7.62852e-016 -20   XYZ
    dof rx
    limits (-90.0 20.0)
  end
  begin
     id 11 
     name lowerback
     direction 0.0235427 0.999023 -0.0374125   
     length 2.21768   
     axis 0 0 0   XYZ
    dof rx ry rz
    limits (-20.0 45.0)
           (-30.0 30.0)
           (-30.0 30.0)
  end
  begin
     id 12 
     name upperback
     direction 0.0302156 0.996818 -0.073759   
     length 2.20352   
     axis 0 0 0   XYZ
    dof rx ry rz
    limits (-20.0 45.0)
           (-30.0 30.0)
           (-30.0 30.0)
  end
  begin
     id 13 
     name thorax
     direction 0.0187169 0.998235 -0.0563532   
     length 2.22103   
     axis 0 0 0   XYZ
    dof rx ry rz
    limits (-20.0 45.0)
           (-30.0 30.0)
           (-30.0 30.0)
  end
  begin
     id 14 
     name lowerneck
     direction -0.119528 0.987423 0.103481   
     length 1.72948   
     axis 0 0 0   XYZ
    dof rx ry rz
    limits (-20.0 45.0)
           (-30.0 30.0)
           (-30.0 30.0)
  end
  begin
     id 15 
     name upperneck
     direction 0.248049 0.963095 -0.104496   
     length 1.74979   
     axis 0 0 0   XYZ
    dof rx ry rz
    limits (-20.0 45.0)
           (-30.0 30.0)
           (-30.0 30.0)
  end
  begin
     id 16
     name head
     direction 0.0903589 0.994284 -0.056876  
     length 1.78268  
     axis 0 0 0   XYZ
    dof rx ry rz
    limits (-20.0 45.0)
           (-30.0 30.0)
           (-30.0 30.0)
  end
  begin
     id 17 
     name lclavicle
     direction 0.946008 0.242039 -0.215608  
     length 3.80783  
     axis 0 0 0   XYZ
    dof ry rz
    limits (-20.0 10.0)
           (0.0 20.0)
  end
  begin
     id 18 
     name lhumerus
     direction 1 -4.48991e-011 -2.25695e-027   
     length 4.83125   
     axis 180 -30 -90   XYZ
    dof rx ry rz
    limits (-60.0 90.0)
           (-90.0 90.0)
           (-90.0 90.0)
  end
  begin
     id 19
     name lradius
     direction 0.999991 0.00366712 -0.00211721   
     length 3.00391   
     axis 180 -30 -90   XYZ
    dof rx
    limits (-10.0 170.0)
  end
  begin
     id 20
     name lwrist
     direction 0.999991 0.00393016 -0.00141978   
     length 1.50195   
     axis -1.00488e-014 90 90   XYZ
    dof ry
    limits (-180.0 0.0)
 end
  begin
     id 21 
     name lhand
     direction 1 -4.49123e-011 2.72098e-026   
     length 1.2717   
     axis -1.73687e-014 90 90   XYZ
    dof rx rz
    limits (-90.0 90.0)
           (-45.0 45.0)
  end
  begin
     id 22 
     name lfingers
     direction 1 -4.48678e-011 5.4479e-026   
     length 1.02528   
     axis -3.47372e-014 90 90   XYZ
    dof rx
    limits (0.0 90.0)
  end
  begin
     id 23
     name lthumb
     direction 0.707107 -6.34851e-011 0.707107   
     length 1.4721   
     axis -90 45 -1.62303e-014   XYZ
    dof rx rz
    limits (-45.0 45.0)
           (-45.0 45.0)
  end
  begin
     id 24 
     name rclavicle
     direction -0.981723 0.189447 -0.0181673   
     length 3.74989  
     axis 0 0 0   XYZ 
    dof ry rz
    limits (-10.0 20.0)
           (-20.0 0.0)
  end
  begin
     id 25 
     name rhumerus
     direction -1 -4.48985e-011 2.38206e-027  
     length 4.61118   
     axis 180 30 90   XYZ
    dof rx ry rz
    limits (-90.0 60.0)
           (-90.0 90.0)
           (-90.0 90.0)
  end
  begin
     id 26 
     name rradius
     direction -1 -4.48977e-011 7.41019e-027   
     length 2.91491   
     axis 180 30 90   XYZ
    dof rx
    limits (-10.0 170.0)
  end
  begin
     id 27 
     name rwrist
     direction -1 -4.48549e-011 1.3624e-026   
     length 1.45745   
     axis -1.00488e-014 -90 -90   XYZ
    dof ry
    limits (-180.0 0.0)
  end
  begin
     id 28
     name rhand
     direction -1 -4.49107e-011 2.72109e-026   
     length 1.30769   
     axis -1.73687e-014 -90 -90   XYZ
    dof rx rz
    limits (-90.0 90.0)
           (-45.0 45.0)
  end
  begin
     id 29
     name rfingers
     direction -1 -4.48919e-011 5.44468e-026   
     length 1.05429   
     axis -3.47372e-014 -90 -90   XYZ
    dof rx
    limits (0.0 90.0)
  end
  begin
     id 30
     name rthumb
     direction -0.707107 -6.35315e-011 0.707107   
     length 1.51376   
     axis -90 -45 1.62303e-014   XYZ
    dof rx rz
    limits (-45.0 45.0)
           (-45.0 45.0)
  end
:hierarchy
  begin
    root lhipjoint rhipjoint lowerback
    lhipjoint lfemur
    lfemur ltibia
    ltibia lfoot
    lfoot ltoes
    rhipjoint rfemur
    rfemur rtibia
    rtibia rfoot
    rfoot rtoes
    lowerback upperback
    upperback thorax
    thorax lowerneck lclavicle rclavicle
    lowerneck upperneck
    upperneck head
    lclavicle lhumerus
    lhumerus lradius
    lradius lwrist
    lwrist lhand lthumb
    lhand lfingers
    rclavicle rhumerus
    rhumerus rradius
    rradius rwrist
    rwrist rhand rthumb
    rhand rfingers
  end

#!OML:ASF X:\für Bonn\!DataBase\2005_08_11_Bastian_Final\c3d\Bastian.ASF
:FULLY-SPECIFIED
:DEGREES
16
root -1.93799 17.1746 2.02707 160.202 -12.7266 -173.178
lowerback 12.578 -1.62989 6.21118
upperback 8.09724 -2.78081 3.31429
thorax 1.42255 -1.77654 0.268549
lowerneck -4.69975 -6.74504 -3.07784
upperneck -3.9994 -8.97403 4.77654
head -0.0867013 -4.53667 1.85372
rclavicle -1.83379e-014 -8.34896e-015
rhumerus -52.129 33.3299 -108.522
rradius 28.085
rwrist -37.5499
rhand -37.307 -2.69334
rfingers 7.12502
rthumb -10.3708 -32.4176
lclavicle -1.83379e-014 -8.34896e-015
lhumerus -5.52552 -29.7249 91.8828
lradius 68.3587
lwrist 0.362853
lhand -51.2808 -4.0851
lfingers 7.12502
lthumb -23.8179 24.4584
rfemur -16.147 -10.6146 21.8055
rtibia 69.9565
rfoot 6.54707 -4.31611
rtoes -12.024
lfemur 6.8756 -2.112 -14.1969
ltibia 33.3572
lfoot -14.382 -7.53738
ltoes -6.41332
17
root -1.95387 17.1826 2.06919 159.848 -12.8023 -173.442
lowerback 13.5104 -1.71671 5.86602
upperback 8.28237 -2.92601 3.22039
thorax 1.12356 -1.89227 0.418113
lowerneck -4.76142 -6.70215 -3.30661
upperneck -4.08238 -8.90862 5.09106
head -0.0782251 -4.5055 1.99354
rclavicle 1.58034e-014 7.55382e-015
rhumerus -52.636 33.0198 -108.919
rradius 27.9792
rwrist -37.4096
rhand -36.992 -2.421
rfingers 7.12502
rthumb -10.067 -32.1602
lclavicle 1.58034e-014 7.55382e-015
lhumerus -3.49895 -29.684 91.1313
lradius 69.8617
lwrist -0.16982
lhand -51.6044 -4.86781
lfingers 7.12502
lthumb -24.1283 23.6349
rfemur -18.3407 -10.3198 21.2672
rtibia 72.7504
rfoot 9.88329 -4.02239
rtoes -14.6524
lfemur 7.42564 -1.73501 -14.453
ltibia 32.789
lfoot -13.8936 -7.83211
ltoes -6.03562
18
root -1.96863 17.1939 2.11074 159.491 -12.8425 -173.688
lowerback 14.4605 -1.80867 5.51616
upperback 8.44713 -3.08476 3.13508
thorax 0.798957 -2.01593 0.586803
lowerneck -4.81981 -6.64306 -3.57356
upperneck -4.12258 -8.81891 5.42724
head -0.0553136 -4.4607 2.14771
rclavicle -2.33572e-014 1.82882e-014
rhumerus -53.1315 32.6228 -109.189
rradius 28.0444
rwrist -37.1317
rhand -36.8029 -2.01406
rfingers 7.12502
rthumb -9.88445 -31.762
lclavicle -2.33572e-014 1.82882e-014
lhumerus -1.44527 -29.5904 90.335
lradius 71.2902
lwrist -0.717932
lhand -51.9598 -5.6968
lfingers 7.12502
lthumb -24.4689 22.7603
rfemur -20.588 -10.0005 20.7974
rtibia 75.4908
rfoot 12.664 -3.84872
rtoes -17.1708
lfemur 7.99709 -1.41161 -14.6987
ltibia 32.1903
lfoot -13.3985 -8.04433
ltoes -5.58197
19
root -1.98324 17.2055 2.15033 159.065 -12.855 -173.869
lowerback 15.4441 -1.91323 5.20252
upperback 8.62413 -3.27256 3.08008
thorax 0.47592 -2.15773 0.777343
lowerneck -4.8517 -6.55982 -3.84839
upperneck -4.20833 -8.69741 5.73608
head -0.0541657 -4.40106 2.29882
rclavicle 1.63003e-014 -4.73108e-014
rhumerus -53.6404 32.2959 -109.415
rradius 28.2772
rwrist -36.9097
rhand -36.7165 -1.47682
rfingers 7.12502
rthumb -9.80111 -31.2287
lclavicle 1.63003e-014 -4.73108e-014
lhumerus 0.642258 -29.4428 89.5041
lradius 72.6881
lwrist -1.28954
lhand -52.3608 -6.54453
lfingers 7.12502
lthumb -24.8533 21.86
rfemur -22.7829 -9.71039 20.4551
rtibia 78.1869
rfoot 14.7984 -3.82061
rtoes -18.7816
lfemur 8.64599 -1.19372 -14.9187
ltibia 31.5891
lfoot -12.9479 -8.10449
ltoes -5.52765
20
root -1.99673 17.2153 2.18801 158.6 -12.8422 -173.966
lowerback 16.4458 -2.03262 4.9541
upperback 8.79305 -3.48192 3.04799
thorax 0.140059 -2.31094 0.965866
lowerneck -4.92203 -6.47045 -4.11658
upperneck -4.23318 -8.5669 6.01086
head -0.0304573 -4.3351 2.43642
rclavicle -1.81391e-014 -6.36111e-015
rhumerus -54.0085 31.8567 -109.431
rradius 28.558
rwrist -36.5612
rhand -36.6143 -0.879813
rfingers 7.12502
rthumb -9.70255 -30.6363
lclavicle -1.81391e-014 -6.36111e-015
lhumerus 2.71111 -29.2583 88.6445
lradius 74.0622
lwrist -1.83984
lhand -52.8065 -7.37555
lfingers 7.12502
lthumb -25.2804 20.9694
rfemur -24.9643 -9.46626 20.2719
rtibia 80.8773
rfoot 16.241 -3.86689
rtoes -19.4369
lfemur 9.32237 -1.0548 -15.0571
ltibia 30.9987
lfoot -12.5286 -8.12465
ltoes -5.31552
21
root -2.00957 17.2221 2.22003 158.081 -12.7841 -173.975
lowerback 17.4182 -2.15336 4.7509
upperback 8.97935 -3.70522 3.05662
thorax -0.154192 -2.47406 1.17781
lowerneck -4.99916 -6.36953 -4.39531
upperneck -4.23673 -8.41976 6.26396
head -0.000934876 -4.25984 2.56982
rclavicle 4.01545e-014 -4.41302e-014
rhumerus -54.375 31.4908 -109.435
rradius 28.9709
rwrist -36.3273
rhand -36.5905 -0.387101
rfingers 7.12502
rthumb -9.67954 -30.1447
lclavicle 4.01545e-014 -4.41302e-014
lhumerus 4.74985 -29.0456 87.7609
lradius 75.4754
lwrist -2.37838
lhand -53.2325 -8.02868
lfingers 7.12502
lthumb -25.6884 20.2579
rfemur -27.0656 -9.23076 20.2688
rtibia 83.5775
rfoot 16.8384 -3.97333
rtoes -19.3456
lfemur 10.0533 -1.05419 -15.1449
ltibia 30.4419
lfoot -12.1578 -8.02388
ltoes -4.96038
22
root -2.02223 17.2285 2.24908 157.528 -12.7058 -173.897
lowerback 18.3554 -2.28992 4.61713
upperback 9.19145 -3.95818 3.09092
thorax -0.396833 -2.65451 1.38606
lowerneck -5.08473 -6.24468 -4.67291
upperneck -4.26896 -8.24117 6.51473
head 0.0182856 -4.16974 2.70488
rclavicle -5.46658e-015 -2.78299e-014
rhumerus -54.6261 31.2036 -109.35
rradius 29.4321
rwrist -36.1562
rhand -36.5309 0.0210066
rfingers 7.12502
rthumb -9.62203 -29.7393
lclavicle -5.46658e-015 -2.78299e-014
lhumerus 6.76233 -28.7721 86.8919
lradius 76.908
lwrist -2.8696
lhand -53.6322 -8.66718
lfingers 7.12502
lthumb -26.0712 19.5636
rfemur -29.1417 -9.00505 20.4283
rtibia 86.3008
rfoot 16.8053 -4.02612
rtoes -18.3869
lfemur 10.8105 -1.15335 -15.1731
ltibia 29.9118
lfoot -11.8751 -7.81137
ltoes -4.98259
